<svg xmlns="http://www.w3.org/2000/svg" width="512" height="512" viewBox="0 0 128 128">
  <title>Kindred</title>
  <defs>
    <linearGradient id="apricot" x1="25" y1="12" x2="98" y2="116" gradientUnits="userSpaceOnUse">
      <stop stop-color="#ffd180"/>
      <stop offset=".5" stop-color="#ffb15b"/>
      <stop offset="1" stop-color="#f38b51"/>
    </linearGradient>
  </defs>
  <path d="M44 9C61 9 70 22 65 40L77 25C89 10 110 19 110 35C110 47 95 57 84 65C97 74 111 83 111 96C111 114 90 122 76 109L64 98C66 114 56 121 41 119C22 117 16 105 16 87V42C16 23 26 9 44 9Z" fill="url(#apricot)" stroke="#da8045" stroke-width="1.1" stroke-linejoin="round"/>
  <path d="M44 13C55 13 62 20 62 30" fill="none" stroke="#fff4d7" stroke-opacity=".55" stroke-width="2.2" stroke-linecap="round"/>
  <g fill="#29221e">
    <rect x="36.5" y="46.2" width="7" height="15.6" rx="3.5"/>
    <rect x="54.5" y="46.2" width="7" height="15.6" rx="3.5"/>
  </g>
</svg>
